<svg width="1172" height="259" xmlns="http://www.w3.org/2000/svg" xmlns:xlink="http://www.w3.org/1999/xlink" xml:space="preserve" overflow="hidden"><defs><clipPath id="clip0"><rect x="115" y="87" width="1172" height="259"/></clipPath></defs><g clip-path="url(#clip0)" transform="translate(-115 -87)"><path d="M144.535 87 147.09 87 212 87 212 113.311 171.062 113.311 171.028 113.348 155.326 113.348 154.975 113.311 154.608 113.311 150.954 113.983C147.412 115.335 144.722 118.53 143.951 122.454L143.728 124.768 143.728 124.768 143.843 125.96 143.843 140.087 143.728 140.19 143.728 150.252 202.313 150.252 202.313 175.905 143.728 175.905 143.728 182.319 143.728 182.319 143.728 232 115 232 115 147.602 115 147.602 115 115.621 115.251 115.621 115.324 114.177C116.287 104.808 120.495 97.0266 126.189 93.4464L127.812 92.2502C131.512 89.8173 136.271 88.0806 141.595 87.3642L144.535 87.1693Z" fill="#E7E6E6" fill-rule="evenodd"/><path d="M0 90.0347 0 118 102.581 73.3153 145 73.3153 145 44.6555 102.514 44.6555 5.6234e-05 0 5.6234e-05 27.9652 71.2452 59Z" fill="#E7E6E6" fill-rule="evenodd" transform="matrix(1.83697e-16 1 1 -1.83697e-16 221 86.9998)"/><path d="M349 87 459 87 459 111.88 417.673 111.88 417.673 232 389.229 232 389.229 111.88 349 111.88Z" fill="#E7E6E6" fill-rule="evenodd"/><rect x="499" y="88" width="9.99997" height="146" fill="#FF8600"/><path d="M562.932 118.84 562.932 200.16 627.523 200.16C633.225 200.16 638.052 200.004 642.004 199.692 645.955 199.38 649.21 198.745 651.77 197.786 654.329 196.827 656.305 195.434 657.697 193.606 659.089 191.778 660.11 189.36 660.761 186.35 661.412 183.341 661.794 179.641 661.906 175.249 662.019 170.858 662.075 165.608 662.075 159.5 662.075 153.392 662.019 148.142 661.906 143.751 661.794 139.359 661.412 135.659 660.761 132.65 660.11 129.64 659.089 127.222 657.697 125.394 656.305 123.566 654.329 122.173 651.77 121.214 649.21 120.255 645.966 119.62 642.037 119.308 638.108 118.996 633.27 118.84 627.523 118.84ZM915.615 108.14 1032 108.14 1032 118.84 980.273 118.84 980.273 210.86 967.341 210.86 967.341 118.84 915.615 118.84ZM881.522 108.14 894.454 108.14 894.454 210.86 881.522 210.86ZM696.559 108.14 709.491 108.14 709.491 210.86 696.559 210.86ZM550 108.14 627.523 108.14C635.426 108.14 642.082 108.597 647.493 109.511 652.904 110.425 657.371 111.818 660.896 113.691 664.421 115.563 667.137 117.904 669.046 120.712 670.954 123.521 672.346 126.831 673.222 130.643 674.097 134.455 674.614 138.758 674.771 143.55 674.928 148.343 675.006 153.66 675.006 159.5 675.006 165.34 674.928 170.657 674.771 175.45 674.614 180.242 674.097 184.545 673.222 188.357 672.346 192.169 670.954 195.479 669.046 198.288 667.137 201.096 664.421 203.437 660.896 205.309 657.371 207.182 652.904 208.575 647.493 209.489 642.082 210.403 635.426 210.86 627.523 210.86L550 210.86ZM778.001 106 812.62 106C819.086 106 824.744 106.301 829.593 106.903 834.442 107.505 838.618 108.419 842.121 109.645 845.623 110.871 848.53 112.42 850.843 114.292 853.155 116.165 854.996 118.372 856.366 120.913 857.735 123.454 858.689 126.33 859.228 129.54 859.767 132.75 860.036 136.317 860.036 140.24L847.105 140.24C847.105 134.89 846.521 130.655 845.354 127.534 844.186 124.413 842.255 122.05 839.561 120.445 836.867 118.84 833.32 117.815 828.92 117.369 824.519 116.923 819.086 116.7 812.62 116.7L778.001 116.7C772.253 116.7 767.415 116.867 763.486 117.201 759.557 117.536 756.313 118.216 753.754 119.241 751.195 120.267 749.219 121.738 747.827 123.655 746.435 125.572 745.425 128.113 744.796 131.279 744.167 134.444 743.808 138.334 743.718 142.948 743.629 147.563 743.584 153.08 743.584 159.5 743.584 165.92 743.64 171.437 743.752 176.052 743.864 180.666 744.235 184.556 744.863 187.721 745.492 190.887 746.491 193.428 747.861 195.345 749.23 197.262 751.195 198.733 753.754 199.759 756.313 200.784 759.557 201.464 763.486 201.799 767.415 202.133 772.253 202.3 778.001 202.3L812.688 202.3C817.717 202.3 822.05 202.166 825.687 201.899 829.324 201.631 832.422 201.141 834.981 200.428 837.541 199.714 839.606 198.733 841.178 197.485 842.749 196.237 843.973 194.665 844.848 192.77 845.724 190.876 846.319 188.602 846.633 185.949 846.948 183.296 847.105 180.187 847.105 176.62L847.105 170.2 795.243 170.2 795.243 159.5 860.036 159.5 860.036 176.62C860.036 180.9 859.767 184.768 859.228 188.223 858.689 191.678 857.735 194.754 856.366 197.452 854.996 200.149 853.166 202.478 850.876 204.44 848.586 206.402 845.69 208.018 842.188 209.289 838.686 210.559 834.51 211.495 829.66 212.097 824.811 212.699 819.153 213 812.688 213L778.001 213C770.098 213 763.442 212.521 758.031 211.562 752.62 210.604 748.164 209.155 744.661 207.215 741.159 205.276 738.454 202.835 736.545 199.893 734.637 196.95 733.245 193.495 732.37 189.527 731.494 185.559 730.989 181.078 730.854 176.085 730.719 171.092 730.652 165.563 730.652 159.5 730.652 153.437 730.719 147.908 730.854 142.915 730.989 137.922 731.494 133.441 732.37 129.473 733.245 125.505 734.637 122.05 736.545 119.107 738.454 116.165 741.159 113.724 744.661 111.785 748.164 109.845 752.62 108.396 758.031 107.438 763.442 106.479 770.098 106 778.001 106Z" fill="#FFFFFF" fill-rule="evenodd"/><path d="M1079.01 115.595 1044.6 176.333 1113.29 176.333ZM1165.17 107 1178.1 107 1178.1 200.167 1260 200.167 1260 211 1165.17 211ZM1069.02 107 1087.59 107 1146.41 211 1132.84 211 1119.4 187.167 1038.47 187.167 1024.97 211 1010 211Z" fill="#FFFFFF" fill-rule="evenodd"/><text fill="#FF8600" font-family="Arial,Arial_MSFontService,sans-serif" font-style="italic" font-weight="700" font-size="48" transform="matrix(1 0 0 1 287.328 305)">Ultra<tspan font-size="48" x="110" y="0">-</tspan><tspan font-size="48" x="126.042" y="0">Low Power, Accelerate Development</tspan></text></g></svg>